<svg width="148" height="28" viewBox="0 0 148 28" fill="none" xmlns="http://www.w3.org/2000/svg">
<g clip-path="url(#clip0_2_296)">
<path d="M28.9768 8.98757C28.9768 13.7714 24.3843 17.5533 19.3035 17.5533H9.5096V27.5994H0V0.344727H19.71C25.4815 0.344727 28.9768 3.53397 28.9768 8.98225V8.98757ZM19.4672 8.90518C19.4672 7.97498 18.8167 7.54178 17.922 7.54178H9.5096V10.3457H17.922C18.8167 10.3457 19.4672 9.76096 19.4672 8.90518" fill="#333333"/>
<path d="M45.4771 2.30614C47.8913 2.30614 50.2512 2.99197 52.2585 4.27691C54.2657 5.56185 55.8302 7.38819 56.754 9.52496C57.6779 11.6617 57.9196 14.013 57.4486 16.2814C56.9777 18.5498 55.8152 20.6334 54.1081 22.2688C52.4011 23.9043 50.2262 25.018 47.8584 25.4692C45.4907 25.9204 43.0365 25.6888 40.8061 24.8038C38.5757 23.9187 36.6694 22.4198 35.3282 20.4968C33.987 18.5737 33.2711 16.3128 33.2711 14C33.2748 10.8997 34.562 7.92735 36.8502 5.73508C39.1385 3.54282 42.241 2.30966 45.4771 2.30614V2.30614ZM45.4771 0.312866C42.6515 0.312866 39.8894 1.1156 37.5399 2.61957C35.1905 4.12353 33.3594 6.26117 32.2781 8.76217C31.1967 11.2632 30.9138 14.0152 31.4651 16.6702C32.0163 19.3253 33.377 21.7641 35.375 23.6783C37.373 25.5925 39.9186 26.8961 42.69 27.4242C45.4613 27.9523 48.3339 27.6812 50.9444 26.6453C53.5549 25.6093 55.7862 23.855 57.356 21.6042C58.9258 19.3533 59.7637 16.7071 59.7637 14C59.7637 10.37 58.2585 6.88858 55.5793 4.32174C52.9 1.7549 49.2662 0.312866 45.4771 0.312866" fill="#0071BC"/>
<path d="M45.4951 25.1756C39.5197 25.9809 34.6678 21.609 34.6761 15.4298C34.6845 9.25069 39.5585 3.56986 45.5339 2.76591C51.5093 1.96195 56.3612 6.33254 56.3529 12.5117C56.3446 18.6908 51.4705 24.3717 45.4951 25.1756ZM45.5423 0.849704C38.5349 1.79319 32.8439 8.43345 32.83 15.6783C32.8161 22.9232 38.4836 28.0366 45.4909 27.0918C52.4983 26.147 58.1907 19.5081 58.206 12.2619C58.2213 5.01565 52.5496 -0.096437 45.5423 0.849704" fill="#0071BC"/>
<path d="M45.4951 25.1756C39.5197 25.9809 34.6678 21.609 34.6761 15.4298C34.6845 9.25069 39.5585 3.56986 45.5339 2.76591C51.5093 1.96195 56.3612 6.33254 56.3529 12.5117C56.3446 18.6908 51.4705 24.3717 45.4951 25.1756ZM45.5423 0.849704C38.5349 1.79319 32.8439 8.43345 32.83 15.6783C32.8161 22.9232 38.4836 28.0366 45.4909 27.0918C52.4983 26.147 58.1907 19.5081 58.206 12.2619C58.2213 5.01565 52.5496 -0.096437 45.5423 0.849704" fill="#0071BC"/>
<path d="M43.9694 25.0321C39.5087 25.6328 36.1894 22.0887 36.3753 16.6033C36.5778 10.642 40.8444 4.61173 45.8877 3.16062C46.2751 3.04753 46.6712 2.96356 47.0722 2.90947C51.533 2.3075 54.8522 5.85287 54.6677 11.3384C54.4652 17.2996 50.1973 23.3299 45.1553 24.781C44.7673 24.8935 44.3708 24.9774 43.9694 25.0321V25.0321ZM47.3372 1.01586C46.9041 1.07613 46.4759 1.16493 46.0555 1.28163L45.8322 1.34541C39.9678 3.10348 35.0437 10.1065 34.8149 17.0524C34.5957 23.4854 38.4739 27.6287 43.7003 26.9258C44.1377 26.8667 44.5702 26.7779 44.9944 26.66L45.19 26.6042C51.0614 24.8528 55.9951 17.8431 56.2309 10.8919C56.4501 4.45891 52.5719 0.315557 47.3441 1.01852" fill="#0071BC"/>
<path d="M43.0318 25.0588C39.8166 25.492 37.6722 22.5007 38.0384 17.572C38.4712 11.7902 42.1995 5.49411 46.3607 3.54203C46.6731 3.3927 46.9979 3.26825 47.3316 3.16995C47.5927 3.09263 47.8599 3.03574 48.1306 2.99986C51.3444 2.56665 53.4901 5.55922 53.1239 10.4866C52.6912 16.2698 48.9628 22.5645 44.8016 24.5166C44.4892 24.6659 44.1645 24.7904 43.8307 24.8887C43.5728 24.9655 43.3089 25.0224 43.0415 25.0588H43.0318ZM48.5647 1.11156C48.251 1.15542 47.9413 1.22206 47.6382 1.31089C47.275 1.41927 46.9204 1.5525 46.5771 1.70954L46.4453 1.772L46.4092 1.78928C41.5698 4.12539 37.2547 11.4341 36.7526 18.1766C36.3198 23.9545 38.8249 27.4533 42.5907 26.9471C42.9045 26.9043 43.2143 26.8381 43.5172 26.7491C43.8728 26.6428 44.22 26.5122 44.5561 26.3584L44.6158 26.3305L44.7545 26.2667C49.5911 23.9266 53.909 16.6206 54.4056 9.88064C54.8397 4.1028 52.3333 0.605271 48.5689 1.11023" fill="#0071BC"/>
<path d="M42.5061 25.084C40.3243 25.3816 39.1147 22.7412 39.6834 18.2351C40.4005 12.5848 43.6546 6.09869 46.9377 3.78251C47.1783 3.60927 47.4334 3.45548 47.7006 3.32273C47.8965 3.2232 48.1012 3.14049 48.3123 3.07556C48.4625 3.02941 48.6165 2.99563 48.7728 2.97457C50.9532 2.67956 52.1655 5.316 51.5982 9.82479C50.8811 15.4751 47.6271 21.9598 44.3425 24.2774C44.102 24.4506 43.8468 24.6044 43.5797 24.7371C43.3844 24.8357 43.1807 24.9179 42.9707 24.983C42.82 25.0288 42.6655 25.0626 42.5089 25.084H42.5061ZM49.3137 1.08229C49.1301 1.10683 48.9491 1.14685 48.7728 1.20188C48.5258 1.2771 48.2863 1.37316 48.057 1.48891C47.7735 1.63187 47.501 1.79396 47.2415 1.97394L47.161 2.03109L47.093 2.07892C43.2648 4.83894 39.5003 12.3669 38.6667 18.9553C37.9954 24.2388 39.4116 27.3271 41.9637 26.9802C42.1479 26.9558 42.3294 26.9158 42.5061 26.8606C42.7529 26.7852 42.9924 26.6891 43.2218 26.5736C43.5113 26.4283 43.7895 26.2631 44.054 26.0793L44.1927 25.9836C48.0196 23.2236 51.784 15.6956 52.6204 9.10721C53.2904 3.82503 51.8742 0.735457 49.3206 1.08362" fill="#0071BC"/>
<path d="M42.4742 25.0561C40.2938 25.3497 39.0815 22.712 39.6516 18.2058C40.3687 12.5543 43.6241 6.0708 46.9072 3.75328C47.1484 3.58057 47.4035 3.42639 47.6701 3.29217C47.8664 3.19425 48.071 3.11245 48.2818 3.04766C48.4319 3.00076 48.586 2.96653 48.7423 2.94534C50.9227 2.65831 52.135 5.28943 51.5649 9.79689C50.8464 15.4485 47.5924 21.9306 44.3093 24.2481C44.0681 24.4208 43.813 24.575 43.5464 24.7092C43.3502 24.8074 43.1456 24.8892 42.9347 24.9537C42.7845 25.0002 42.6304 25.0344 42.4742 25.0561V25.0561ZM49.2818 1.05173C49.0989 1.07741 48.9184 1.11741 48.7423 1.17133C48.4951 1.24869 48.2552 1.34604 48.0252 1.46235C47.7417 1.6053 47.4691 1.76739 47.2096 1.94738L47.1721 1.97395L47.057 2.05634C43.2302 4.81769 39.4699 12.3416 38.6349 18.9327C37.9649 24.2162 39.3811 27.3045 41.9347 26.9577C42.1176 26.932 42.2981 26.892 42.4742 26.8381C42.721 26.7618 42.9604 26.6653 43.1899 26.5497C43.4793 26.4037 43.7574 26.238 44.0222 26.054L44.1498 25.9637C47.9794 23.2063 51.7466 15.677 52.5816 9.08728C53.253 3.80245 51.8354 0.715532 49.2818 1.06103" fill="#0071BC"/>
<path d="M63.5962 20.4463H78.4376C79.697 20.4463 80.3073 19.9015 80.3073 19.0058C80.3073 18.1487 79.697 17.6039 78.396 17.6039H71.6438C66.889 17.6039 63.0275 14.4891 63.0275 8.99961C63.0275 2.69156 67.5381 0.399292 72.0904 0.399292H88.9098V7.59767H74.4068C73.3097 7.59767 72.5371 7.98702 72.5371 8.95974C72.5371 9.97233 73.3097 10.4002 74.4068 10.4002H80.747C86.1926 10.4002 89.81 13.4765 89.81 18.966C89.81 24.1485 85.7459 27.6487 80.4627 27.6487H63.4741L63.5962 20.4463Z" fill="#333333"/>
<path d="M92.3774 20.4463H107.204C108.463 20.4463 109.073 19.9014 109.073 19.0058C109.073 18.1487 108.463 17.6039 107.163 17.6039H100.422C95.6674 17.6039 91.8059 14.489 91.8059 8.99955C91.8059 2.6915 96.318 0.393921 100.869 0.393921H117.694V7.59761H103.18C102.083 7.59761 101.311 7.98697 101.311 8.95968C101.311 9.97227 102.083 10.4002 103.18 10.4002H109.52C114.965 10.4002 118.583 13.4764 118.583 18.9659C118.583 24.1484 114.519 27.6486 109.236 27.6486H92.2484L92.3774 20.4463Z" fill="#333333"/>
<path d="M131.546 7.55775V10.4002H147.153V17.6038H131.546V20.4848H147.153V27.6486H122.037V0.393921H147.153V7.55775H131.546Z" fill="#333333"/>
</g>
<defs>
<clipPath id="clip0_2_296">
<rect width="147.153" height="27.3743" fill="white" transform="translate(0 0.312866)"/>
</clipPath>
</defs>
</svg>
